<svg xmlns="http://www.w3.org/2000/svg" viewBox="0 0 25.6 25.6">
  <!-- PostgreSQL Slonik elephant logo - optimized for small sizes -->
  <!-- Dark base shape -->
  <path d="M18.983 18.636c.163-1.357.114-1.555 1.124-1.336l.257.023c.777.035 1.793-.125 2.4-.404 1.285-.588 2.049-1.587.796-1.324-2.893.607-3.2-.383-3.2-.383 3.163-4.688 4.483-10.634 3.338-12.083C22.32 1.44 19.363 2.526 19.29 2.578l-.043.019c-.6-.13-1.272-.21-2.024-.217-1.37-.014-2.412.37-3.186.97 0 0-9.681-3.988-9.226 5.017.097 1.912 2.778 14.467 5.977 10.674 1.17-1.386 2.3-2.558 2.3-2.558.562.372 1.236.56 1.949.493l.055-.048c-.017.178-.01.352.024.556-.94 1.05-.664 1.235-2.545 1.622-1.9.392-1.14 1.014-.08 1.183 1.288.205 4.268.497 4.985-1.315l-.048.188z" fill="#336791"/>
  <!-- Lighter overlay -->
  <path d="M23.535 15.6c-2.893.607-3.2-.383-3.2-.383 3.163-4.688 4.483-10.634 3.338-12.083C22.32 1.44 19.363 2.526 19.29 2.578l-.043.019a7.6 7.6 0 0 0-2.024-.217c-1.37-.014-2.412.37-3.186.97 0 0-9.681-3.988-9.226 5.017.097 1.912 2.778 14.467 5.977 10.674 1.17-1.386 2.3-2.558 2.3-2.558.562.372 1.236.56 1.949.493-.025.267-.013.53.038.803-.94 1.05-.664 1.235-2.545 1.622-1.9.392-1.14 1.014-.08 1.183 1.288.205 4.268.497 4.985-1.315a4.4 4.4 0 0 0 .097 1.22c0 0 .168 3.028 3.63 1.942 2.9-.91 4.38-3.275 3.373-5.432z" fill="#6699cc"/>
  <!-- Tail/trunk detail - filled version for small-size clarity -->
  <path d="M12.814 19.371c-.94 1.05-.664 1.235-2.545 1.622-1.9.392-1.14 1.014-.08 1.183 1.288.205 4.268.497 4.985-1.315a4.4 4.4 0 0 0 .097 1.22s.168 3.028 3.63 1.942c2.899-.91 4.38-3.275 3.373-5.432.163-1.357.114-1.555 1.124-1.336l.257.023c.777.035 1.793-.125 2.4-.404 1.285-.588 2.049-1.587.796-1.324-2.893.607-3.2-.383-3.2-.383" fill="none" stroke="#336791" stroke-width="1.2" stroke-linecap="round" stroke-linejoin="round"/>
  <!-- Head highlight / eye area -->
  <path d="M19.3 8.3c0 .9-.5 1.6-1.1 1.6s-1.1-.7-1.1-1.6.5-1.6 1.1-1.6 1.1.7 1.1 1.6z" fill="#fff"/>
  <path d="M19 8.3c0 .5-.3.9-.6.9s-.7-.4-.7-.9.3-.9.6-.9.7.4.7.9z" fill="#336791"/>
</svg>