<svg xmlns="http://www.w3.org/2000/svg" viewBox="0 0 32 32">
  <defs>
    <linearGradient id="pg" x1="0" y1="0" x2="0" y2="1">
      <stop offset="0%" stop-color="#4a8db7"/>
      <stop offset="100%" stop-color="#336791"/>
    </linearGradient>
  </defs>
  <!-- Elephant body / head -->
  <path d="M22.5 3.8c-1.5-1.2-3.6-1.6-5.5-1.5-1.6.1-3 .6-4.2 1.4C11.4 3 9.6 2.8 8 3.2 5.4 3.9 3.6 6 3.2 8.6c-.3 2 .1 4 .8 5.8-.8 1.2-1.2 2.7-1 4.2.3 2.2 1.8 4 3.8 4.8.5.2 1 .3 1.5.3.2 1.3.7 2.5 1.5 3.5 1.2 1.5 3 2.3 4.8 2.3.5 0 1-.1 1.5-.2 2.3-.6 3.8-2.5 4.2-4.8h.2c1.8 0 3.4-.8 4.5-2.1.2.8.5 1.5 1 2.1 1 1.2 2.5 1.8 4 1.6 2.3-.3 4-2.2 4.2-4.5.1-1.5-.4-3-1.4-4.1.5-1.5.6-3.1.3-4.7-.5-2.5-2-4.7-4.1-6.1-.6-2.3-2-4.3-4-5.6l-1.5-.3z" fill="url(#pg)"/>
  <!-- Elephant ear -->
  <path d="M10.5 7c-1.5.5-2.5 1.8-2.8 3.3-.2 1.2.1 2.5.8 3.5.8 1 2 1.5 3.2 1.3 1.2-.2 2.2-1 2.7-2.1.5-1.1.5-2.4 0-3.5-.6-1.3-1.9-2.3-3.3-2.5h-.6z" fill="#2d5f8a" opacity=".6"/>
  <!-- Eye -->
  <circle cx="18.5" cy="10" r="1.5" fill="#fff"/>
  <circle cx="18.8" cy="9.8" r=".7" fill="#1a3d5c"/>
  <!-- Trunk -->
  <path d="M22 14c1 1.5 1.2 3.2.8 4.8-.3 1.2-1 2.2-2 2.8-.5.3-1 .4-1.5.3" fill="none" stroke="#2d5f8a" stroke-width="2" stroke-linecap="round"/>
  <!-- Tusk -->
  <path d="M15.5 16c-.3 1-.2 2 .3 2.8.3.5.8.8 1.3.6.5-.2.7-.8.5-1.4l-.8-2.2" fill="#e8dcc8"/>
</svg>